# xmcd
#
# Track frame offsets:
#	150
#	14915
#	32679
#	45722
#	65183
#	80702
#	96511
#	109367
#	128121
#	141174
#	156924
#	174016
#	187858
#	202905
#	220632
#	236327
#	253189
#	268915
#	284656
#	300346
#	315547
#
# Disc length: 4391 seconds
#
# Revision: 1
# Processed by: cddbd v1.5.2PL0 Copyright (c) Steve Scherf et al.
# Submitted via: dBpowerAMP V4.0
#
DISCID=36112515
DTITLE=Various Artist - Hott Country Volume 255 Can
DYEAR=2017
DGENRE=Country
TTITLE0=Jason Aldean - They Don't Know
TTITLE1=Brad Paisley - Last Time For Everything
TTITLE2=Todd O'Neill - Love Again
TTITLE3=Miranda Lambert - Tin Man
TTITLE4=Jon Pardi - Heartache On The Dancefloor
TTITLE5=Dean Brody ft. Shevy Price - Beautiful Freakshow
TTITLE6=Parmalee - Sunday Morning
TTITLE7=Walker McGuire - Til Tomorrow
TTITLE8=Jake Owen - Good Company
TTITLE9=Bobby Wills - Get While The Gettin's Good
TTITLE10=Devin Dawson - All On Me
TTITLE11=Denny Strickland - We Don't Sleep
TTITLE12=Shane Owens - All The Beer In Alabama
TTITLE13=Meghan Patrick - Be Country With Me
TTITLE14=Dan and Shay - When I Pray For You
TTITLE15=Lucas Hoge - Dirty South
TTITLE16=Chris Buck Band ft. Kira Isabella - That's When You Know
TTITLE17=Joe Lasher Jr. - Tap A Little Tail Light
TTITLE18=Jamie Lee Thurston - Givin' Up Breathin'
TTITLE19=Tristan Horncastle - Gone By Midnight
TTITLE20=Dani Strong - Wild One
EXTD=
EXTT0=
EXTT1=
EXTT2=
EXTT3=
EXTT4=
EXTT5=
EXTT6=
EXTT7=
EXTT8=
EXTT9=
EXTT10=
EXTT11=
EXTT12=
EXTT13=
EXTT14=
EXTT15=
EXTT16=
EXTT17=
EXTT18=
EXTT19=
EXTT20=
PLAYORDER=
